<?xml version="1.0" encoding="utf-8"?>
<!-- Generator: Adobe Illustrator 23.0.1, SVG Export Plug-In . SVG Version: 6.00 Build 0)  -->
<svg version="1.1" id="Layer_1" xmlns="http://www.w3.org/2000/svg" xmlns:xlink="http://www.w3.org/1999/xlink" x="0px" y="0px"
	 viewBox="0 0 595 312" style="enable-background:new 0 0 595 312;" xml:space="preserve">
<style type="text/css">
	.st0{clip-path:url(#SVGID_2_);}
	.st1{clip-path:url(#SVGID_4_);fill:#9BBFF9;}
	.st2{clip-path:url(#SVGID_4_);}
	.st3{clip-path:url(#SVGID_6_);fill:#7B92DB;}
	.st4{clip-path:url(#SVGID_6_);fill:#23003F;}
	.st5{clip-path:url(#SVGID_6_);fill:#FFD9C0;}
	.st6{clip-path:url(#SVGID_6_);fill:#EBEEF7;}
	.st7{clip-path:url(#SVGID_6_);fill:none;stroke:#CC967A;stroke-width:0.7926;stroke-linecap:round;stroke-miterlimit:10;}
	.st8{clip-path:url(#SVGID_6_);fill:none;stroke:#23003F;stroke-width:0.7926;stroke-linecap:round;stroke-miterlimit:10;}
	.st9{clip-path:url(#SVGID_6_);fill:#0D3254;}
	.st10{clip-path:url(#SVGID_6_);fill:#EEB8A9;}
	.st11{clip-path:url(#SVGID_6_);fill:#071E2B;}
	.st12{clip-path:url(#SVGID_6_);fill:#64628E;}
	.st13{clip-path:url(#SVGID_6_);fill:#373167;}
	.st14{clip-path:url(#SVGID_6_);fill:#CC6F4C;}
	.st15{clip-path:url(#SVGID_6_);fill:#433832;}
	.st16{clip-path:url(#SVGID_6_);fill:none;stroke:#A55337;stroke-width:0.7926;stroke-linecap:round;stroke-miterlimit:10;}
	.st17{clip-path:url(#SVGID_6_);fill:none;stroke:#433832;stroke-width:0.7926;stroke-linecap:round;stroke-miterlimit:10;}
	.st18{clip-path:url(#SVGID_6_);fill:#7173A3;}
	.st19{clip-path:url(#SVGID_6_);fill:#1E1C3F;}
	.st20{clip-path:url(#SVGID_6_);fill:#A9553C;}
	.st21{clip-path:url(#SVGID_6_);fill:#873F2E;}
	.st22{clip-path:url(#SVGID_6_);fill:#B55E43;}
	.st23{clip-path:url(#SVGID_6_);fill:#6E2A2C;}
	
		.st24{clip-path:url(#SVGID_6_);fill:none;stroke:#CC967A;stroke-width:0.7926;stroke-linecap:round;stroke-linejoin:round;stroke-miterlimit:10;}
	
		.st25{clip-path:url(#SVGID_6_);fill:none;stroke:#6E2A2C;stroke-width:0.7926;stroke-linecap:round;stroke-linejoin:round;stroke-miterlimit:10;}
	.st26{clip-path:url(#SVGID_6_);fill:#133E5E;}
	.st27{clip-path:url(#SVGID_6_);fill:#404263;}
	.st28{clip-path:url(#SVGID_6_);fill:#000B3D;}
	.st29{clip-path:url(#SVGID_6_);fill:#003071;}
	.st30{clip-path:url(#SVGID_6_);fill:#D99D89;}
	.st31{clip-path:url(#SVGID_6_);fill:none;stroke:#B27666;stroke-width:0.7926;stroke-linecap:round;stroke-miterlimit:10;}
	.st32{clip-path:url(#SVGID_6_);fill:none;stroke:#000B3D;stroke-width:0.7926;stroke-linecap:round;stroke-miterlimit:10;}
	.st33{clip-path:url(#SVGID_6_);fill:#004197;}
	.st34{clip-path:url(#SVGID_6_);fill:#BD9479;}
	.st35{clip-path:url(#SVGID_6_);fill:#AF7768;}
	.st36{clip-path:url(#SVGID_6_);fill:#FEFEFE;}
	.st37{clip-path:url(#SVGID_6_);fill:#CC967A;}
	.st38{clip-path:url(#SVGID_6_);fill:#A55337;}
	.st39{clip-path:url(#SVGID_6_);fill:#B27666;}
	.st40{clip-path:url(#SVGID_8_);fill:#F7FAFB;}
	.st41{fill:#031651;}
</style>
<g>
	<defs>
		<rect id="SVGID_1_" x="-0.23" y="0.5" width="594.47" height="311.5"/>
	</defs>
	<clipPath id="SVGID_2_">
		<use xlink:href="#SVGID_1_"  style="overflow:visible;"/>
	</clipPath>
	<g class="st0">
		<g>
			<defs>
				<rect id="SVGID_3_" x="0.16" y="-22.88" width="594.47" height="396.31"/>
			</defs>
			<clipPath id="SVGID_4_">
				<use xlink:href="#SVGID_3_"  style="overflow:visible;"/>
			</clipPath>
			<rect x="0.16" y="-22.88" class="st1" width="594.47" height="396.31"/>
			<g class="st2">
				<defs>
					<rect id="SVGID_5_" x="0.16" y="-22.88" width="594.47" height="396.31"/>
				</defs>
				<clipPath id="SVGID_6_">
					<use xlink:href="#SVGID_5_"  style="overflow:visible;"/>
				</clipPath>
				<path class="st3" d="M116.75,312.06c0,0-34.85-5.69-30.61-48.12c4.24-42.43,16.65-83.52-0.36-108.48
					c-25-36.69-7.25-100.24,49.71-93.09c56.96,7.15,80.74,20.86,112.56-24.06C264.63,14.9,289.94-5.58,328,9.05
					c38.06,14.63,37.09,51.5,57.57,57.94c20.48,6.44,86.67-26.4,118.93,16.84s-2.92,77.64-6.6,96.31
					c-3.69,18.67,12.09,43.89,20.11,77.83c8.02,33.93-9.93,54.1-9.93,54.1H116.75z"/>
				<path class="st4" d="M109.34,82.29c0,0-16.01,4.62-19.27,25.94c-2.08,13.43,4.04,25.55,4.04,34.31c0,8.75-7.81,18.38-9.89,32.18
					c-2.08,13.8,2.99,20.96,15.36,26.04c12.37,5.08,45.3,0.52,51.94-5.6c6.64-6.12,14.32-16.14,13.02-39.44
					c-0.91-10.81-9.78-24.66-13.03-36.03c-3.25-11.36-6.37-23.86-14.96-30.89C127.96,81.77,121.06,79.69,109.34,82.29"/>
				<path class="st5" d="M103.64,127.9c0,0,4.79,17.58,14.38,22.38c9.59,4.8,20.69,1.92,23.82-6.41c3.12-8.33,2.43-21,1.74-28.12
					c0,0-17.88-3.3-25.86-15.8C117.72,99.95,114.07,122.17,103.64,127.9"/>
				<path class="st5" d="M149.58,115.18c-2.28-2.52-5.33,0.63-5.94,1.3c0.38,4.16,0.72,9.93,0.37,15.62
					c1.17-0.04,3.41-0.52,5.57-3.19C152.7,125.06,152.13,117.99,149.58,115.18"/>
				<path class="st5" d="M103.64,127.9c0,0-5.02-2.26-6.06,1.38s1.56,10.24,6.06,12.32c2.96,1.37,5.11,0.94,6.23,0.48
					C105.72,135.51,103.64,127.9,103.64,127.9"/>
				<path class="st6" d="M99.67,108.8c1.39-10.07,10.76-17.53,21.7-17.53c9.7,0,17.62,6.69,20.5,11.96
					c-3.79-9.9-7.9-14.77-14.51-16.87c-10.07-3.19-22.65,0.05-27.43,10.29c-4.78,10.24,0,25.01,0,25.01
					C99.36,118.32,98.98,113.77,99.67,108.8"/>
				<path class="st4" d="M117.81,129.17c0.55,1.83,0.15,3.56-0.88,3.87c-1.03,0.31-2.31-0.93-2.86-2.76
					c-0.55-1.83-0.15-3.56,0.88-3.87C115.98,126.11,117.27,127.34,117.81,129.17"/>
				<path class="st4" d="M135.52,123.89c0.55,1.83,0.15,3.56-0.88,3.87c-1.03,0.31-2.31-0.93-2.86-2.76
					c-0.55-1.83-0.15-3.56,0.88-3.87C133.7,120.83,134.98,122.06,135.52,123.89"/>
				<path class="st7" d="M124.75,123.16c0,0,0.52,3.43,2.78,6.21c2.26,2.78,3.12,6.94-0.95,8.24"/>
				<path class="st7" d="M122.2,144.04c0,0,5.76,4.17,9.84-1.13"/>
				<path class="st8" d="M111.64,125.21c0,0-0.35-3.3,2.95-4.34"/>
				<path class="st8" d="M130.22,116.01c0,0,3.73-0.78,5.64,1.82"/>
				<path class="st9" d="M176.01,237.98L176.01,237.98c-0.26,0.18-0.87,0.59-2.23,1.52c-14.23,7.46-43.57,7.12-44.36,4.51
					c0,0-2.25,8.42-6.41,15.97c-4.17,7.55-11.87,32.8-8.75,52.07h37.48c0,0,2.77-13.54,6.16-19.79c0,0,7.44,13.56,8.98,19.79h32.22
					C199.1,312.06,191.78,275.6,176.01,237.98"/>
				<path class="st5" d="M124.22,152.31l2.86,12.04c0,0,8.54,3.3,14.78-2.43l-3.71-12.86C134.64,152,129.5,153.2,124.22,152.31"/>
				<path class="st6" d="M127.09,164.35c0,0-3.12-0.35-2.34,2.95l0.78,3.3c0,0-11.52,5.9-15.65,9.55c-4.14,3.65-5.52,4.86-5.52,4.86
					s6.6,2.43,9.89,13.19c3.3,10.76,3.47,15.79,3.47,15.79s6.07,4.51,7.98,14.58s2.93,12.84,3.72,15.45
					c0.79,2.6,30.13,2.95,44.36-4.51c3.3-2.26,2.23-1.52,2.23-1.52s-3.44-16.7-2.05-30.59c1.21-12.12,0-23.09-12.15-34.54
					c-4.17-5.21-7.12-7.56-7.12-7.56h-9.63c0,0-0.84-6.45-3.5-4.43l0.31,1.06C141.86,161.92,135.92,167.1,127.09,164.35"/>
				<polygon class="st10" points="199.07,180.47 197.96,184.87 198.52,189.15 187.94,189.15 187.94,180.86 191.73,177.72 				"/>
				<path class="st6" d="M199.99,211.56v-22.39l-13.54-0.17l-1.56,14.09c0,0-7.64-24.16-12.67-31.28
					c-5.03-7.12-17.53-6.52-17.53-6.52s2.95,2.35,7.12,7.56c12.15,11.45,13.36,22.42,12.15,34.54c-0.25,2.51-0.34,5.11-0.33,7.69
					c2.31,3.38,5.61,8.29,8.14,12.44c4.34,7.12,10.42,6.77,14.93,3.65C201.21,228.05,199.99,217.98,199.99,211.56"/>
				<path class="st11" d="M168.18,246.79c0,0.6-0.49,1.08-1.09,1.08c-0.6,0-1.08-0.49-1.08-1.08c0-0.6,0.49-1.09,1.08-1.09
					C167.7,245.7,168.18,246.19,168.18,246.79"/>
				<path class="st12" d="M161.3,243.65c0.39,1.01,0.7,2.06,1.02,3.1c0.29,1.05,0.56,2.1,0.81,3.16c0.5,2.12,0.87,4.27,1.17,6.42
					c0.28,2.16,0.49,4.33,0.54,6.51c0.09,2.17,0.03,4.35-0.15,6.52c-0.1-1.09-0.1-2.17-0.21-3.25c-0.07-1.08-0.14-2.16-0.25-3.23
					c-0.2-2.15-0.42-4.3-0.72-6.44c-0.27-2.14-0.62-4.27-0.98-6.41C162.16,247.9,161.75,245.78,161.3,243.65"/>
				<path class="st12" d="M157.9,292.27c0.1-0.77,0.32-1.51,0.59-2.23c0.27-0.72,0.61-1.41,0.99-2.08c0.77-1.33,1.74-2.57,2.97-3.5
					c-0.37,0.68-0.78,1.31-1.16,1.96c-0.38,0.65-0.77,1.28-1.13,1.93C159.41,289.65,158.71,290.96,157.9,292.27"/>
				<path class="st12" d="M117.72,213.99c-0.54-1.67-1.01-3.33-1.4-5.01c-0.38-1.69-0.73-3.38-0.86-5.14
					c0.74,1.6,1.22,3.27,1.63,4.96c0.19,0.85,0.36,1.7,0.48,2.57C117.68,212.23,117.78,213.11,117.72,213.99"/>
				<path class="st12" d="M173.63,215.08c0.13-1.51,0.24-3.01,0.29-4.52c0.08-1.51,0.13-3.01,0.14-4.52
					c0.02-3.01-0.01-6.03-0.3-9.01c-0.23-2.99-0.81-5.94-1.69-8.8c-0.9-2.85-2.18-5.6-3.89-8.09c0.99,1.15,1.84,2.41,2.59,3.73
					c0.73,1.33,1.35,2.73,1.88,4.16c1.02,2.87,1.61,5.89,1.9,8.92c0.23,3.04,0.27,6.07,0.12,9.1
					C174.5,209.09,174.21,212.11,173.63,215.08"/>
				<path class="st12" d="M184.89,203.09c0.03,2.41-0.07,4.79-0.1,7.17c-0.02,1.19-0.04,2.38-0.03,3.57
					c0.02,1.19,0.04,2.38,0.13,3.58c-0.79-2.3-0.92-4.76-0.89-7.16C184.06,207.84,184.31,205.43,184.89,203.09"/>
				<path class="st10" d="M139.16,152.57l-1.01-3.51c-3.51,2.94-8.65,4.14-13.93,3.25l0.79,3.33
					C130.36,156.42,135.52,155.3,139.16,152.57"/>
				<path class="st13" d="M416.26,181.84c-4.17-23.81-7.29-30.69-12.15-34.51c-4.86-3.82-23.7-12.84-23.7-12.84H363.2h-3.93h-17.21
					c0,0-18.84,9.03-23.7,12.84c-4.86,3.82-7.98,10.69-12.15,34.51c-4.17,23.81,1.04,40.48,9.37,39.44l8.33-1.04l-2.08,29.58h37.44
					h3.93h37.44l-2.08-29.58l8.33,1.04C415.22,222.32,420.43,205.66,416.26,181.84"/>
				<path class="st14" d="M337.73,70.62c0,0-1.67,26.9,7.88,40.79c9.55,13.89,26.56,8.16,31.94,0.69
					c5.38-7.46,7.46-26.56,5.55-40.79c0,0-13.37,2.6-21.52-8.33C361.58,62.98,350.51,71.48,337.73,70.62"/>
				<path class="st15" d="M383.1,71.31c0.71,5.31,0.86,11.29,0.5,17.1c0.39-0.49,0.63-0.78,0.63-0.78s2.38-0.87,4.4,0.59
					c1.36-3.53,4.28-12.18,4.01-20.73c-0.35-11.11-7.81-14.23-13.19-12.5c0,0-6.26-10.24-18.75-9.55
					c-12.49,0.69-24.64,7.98-24.64,7.98s-6.77-1.74-8.33,3.12c-1.56,4.86,0.55,11.63,10,14.06c12.77,0.87,23.85-7.64,23.85-7.64
					c4.89,6.56,11.65,8.24,16.29,8.55C381.08,71.41,383.1,71.31,383.1,71.31"/>
				<path class="st15" d="M338.28,87.63L338.28,87.63c-1.02-9.3-0.55-17.02-0.55-17.02c-1.89-0.49-3.48-1.15-4.81-1.94l-0.01,0.01
					c0,0-3.39,6.44,0.75,19.7C335.73,86.7,338.28,87.63,338.28,87.63"/>
				<path class="st14" d="M338.28,87.63L338.28,87.63c0,0-3.77-1.39-5.86,2.25c-2.08,3.65-0.69,14.76,9.63,14.59c0,0,0,0,0,0
					C340.01,99.14,338.88,93.11,338.28,87.63"/>
				<path class="st14" d="M390.09,89.88c-2.08-3.65-5.86-2.25-5.86-2.25s-0.24,0.28-0.63,0.77c-0.36,5.82-1.25,11.46-2.62,16.06
					C390.83,104.25,392.14,93.46,390.09,89.88"/>
				<path class="st15" d="M373.56,98.79c-5.03,0.23-9.59,3.04-13.59,1.66c-4-1.39-7.76-2.41-12.27-1.71
					c-4.13,0.64-7.96-4.39-8.58-5.24c1.14,6.42,3.11,12.99,6.5,17.92c9.55,13.89,26.56,8.16,31.94,0.69
					c2.54-3.52,4.34-9.63,5.34-16.6C381.18,96.54,377.32,98.62,373.56,98.79"/>
				<path class="st4" d="M352.21,85.89c0,2.4-1.05,4.34-2.34,4.34c-1.29,0-2.34-1.94-2.34-4.34c0-2.4,1.05-4.34,2.34-4.34
					C351.16,81.55,352.21,83.49,352.21,85.89"/>
				<path class="st4" d="M373.92,85.89c0,2.4-1.05,4.34-2.34,4.34s-2.34-1.94-2.34-4.34c0-2.4,1.05-4.34,2.34-4.34
					S373.92,83.49,373.92,85.89"/>
				<path class="st16" d="M360.71,78.92c0,0-2.6,10.94-3.12,14.58c-0.52,3.65,3.41,4.34,3.41,4.34"/>
				<path class="st16" d="M359.27,106.68c0,0,6.3,3.18,7.86-2.21"/>
				<path class="st17" d="M345.27,77.04c0,0,1.22-4.34,6.94-4.51"/>
				<path class="st17" d="M368.52,73.74c0,0,4.86-0.31,6.94,4.79"/>
				<path class="st14" d="M369.23,118.22c-4.85,1.96-10.76,2.44-16.07-0.14l-0.02,0v10.15l-2.5,4.51l11.28,20.13l9.65-21.52
					l-2.34-2.78V118.22z"/>
				<path class="st18" d="M353.15,124.25c0,0-9.26,1.56-11.09,10.24c0,0,0.26,9.37,2.86,15.45c0,0,0.95-11.98,8.55-12.15l-2.82-5.03
					l2.5-4.51V124.25z"/>
				<path class="st18" d="M369.23,128.59l2.34,2.78l-3.42,7.63c0,0,8.18,3.83,9.05,10.94c0,0,3.35-7.25,2.83-15.58
					c0.06-3.64-5.23-9.8-10.8-9.11V128.59z"/>
				<path class="st19" d="M323.92,220.24c0.58-0.37,1.09-0.81,1.54-1.31c0.46-0.48,0.88-1.01,1.27-1.54
					c0.78-1.08,1.45-2.24,2.01-3.46c0.6-1.2,1.07-2.46,1.55-3.72l0.66-1.92c0.21-0.65,0.4-1.3,0.64-1.94
					c-0.06,0.68-0.18,1.36-0.27,2.04c-0.13,0.67-0.29,1.34-0.45,2.01c-0.19,0.66-0.39,1.32-0.62,1.97c-0.26,0.64-0.5,1.29-0.81,1.91
					c-0.6,1.25-1.33,2.44-2.24,3.49C326.31,218.81,325.22,219.77,323.92,220.24"/>
				<path class="st19" d="M331.6,170.94c-0.03,2.98-0.18,5.96-0.37,8.93c-0.19,2.97-0.47,5.94-0.75,8.91
					c-0.34,2.96-0.7,5.92-1.18,8.86c-0.5,2.94-1.05,5.89-2.03,8.71c0.14-0.73,0.32-1.45,0.45-2.18c0.12-0.73,0.26-1.46,0.36-2.2
					l0.33-2.2l0.28-2.21c0.36-2.95,0.72-5.9,1-8.86c0.34-2.95,0.61-5.91,0.93-8.87C330.94,176.86,331.24,173.9,331.6,170.94"/>
				<path class="st19" d="M398.67,220.24c-1.3-0.47-2.39-1.43-3.29-2.47c-0.91-1.05-1.64-2.25-2.24-3.49
					c-0.31-0.62-0.55-1.27-0.81-1.91c-0.23-0.65-0.43-1.31-0.62-1.97c-0.16-0.67-0.32-1.34-0.45-2.01c-0.09-0.68-0.2-1.36-0.27-2.04
					c0.24,0.65,0.43,1.3,0.64,1.94l0.66,1.92c0.49,1.26,0.95,2.52,1.55,3.72c0.56,1.21,1.23,2.37,2.01,3.46
					c0.39,0.54,0.81,1.06,1.27,1.54C397.58,219.43,398.1,219.87,398.67,220.24"/>
				<path class="st19" d="M390.99,170.94c0.36,2.96,0.66,5.92,0.97,8.88c0.32,2.96,0.59,5.92,0.93,8.87c0.28,2.96,0.64,5.91,1,8.86
					l0.28,2.21l0.33,2.2c0.1,0.74,0.24,1.46,0.36,2.2c0.13,0.73,0.31,1.45,0.45,2.18c-0.98-2.82-1.54-5.77-2.03-8.71
					c-0.48-2.94-0.84-5.91-1.18-8.86c-0.28-2.97-0.56-5.93-0.75-8.91C391.17,176.9,391.02,173.92,390.99,170.94"/>
				<polygon class="st19" points="361.93,152.89 361.93,169.9 366.79,169.9 366.79,142.05 				"/>
				<path class="st20" d="M321.83,249.82c0,0-3.47,33.08-2.95,62.24h40.23l4.13-17.21l3.54,17.21h37.49c0,0,0.01-25.55-3.64-62.24
					H321.83z"/>
				<path class="st21" d="M367.48,249.82c0.31,2.68,0.49,5.36,0.62,8.05c0.14,2.69,0.18,5.38,0.16,8.08
					c-0.04,2.69-0.13,5.39-0.42,8.08c-0.15,1.34-0.32,2.68-0.58,4.01c-0.3,1.31-0.62,2.66-1.33,3.82c0.55-1.23,0.78-2.56,0.95-3.88
					c0.18-1.32,0.29-2.66,0.36-4c0.15-2.67,0.22-5.35,0.24-8.04c0.04-2.68,0.02-5.37,0.03-8.05L367.48,249.82z"/>
				<path class="st21" d="M357.33,253.78c0,0.6-0.49,1.09-1.09,1.09s-1.08-0.49-1.08-1.09s0.49-1.08,1.08-1.08
					S357.33,253.18,357.33,253.78"/>
				<path class="st21" d="M328.6,249.82c0.07,2.13-0.13,4.26-0.43,6.37c-0.31,2.11-0.78,4.21-1.43,6.25
					c-0.68,2.03-1.51,4.03-2.61,5.87c-0.6,0.89-1.15,1.82-1.88,2.61c-0.67,0.84-1.49,1.54-2.29,2.23c0.68-0.83,1.43-1.57,1.98-2.47
					c0.65-0.83,1.13-1.77,1.66-2.67c0.96-1.87,1.74-3.82,2.39-5.82c0.66-2,1.14-4.05,1.59-6.11c0.23-1.03,0.41-2.07,0.57-3.12
					C328.34,251.92,328.47,250.87,328.6,249.82"/>
				<path class="st21" d="M392.48,249.82l0.78,3.35c0.25,1.12,0.52,2.23,0.8,3.34c0.56,2.21,1.13,4.43,1.79,6.6
					c0.65,2.18,1.39,4.33,2.32,6.4c0.48,1.02,1.02,2.02,1.72,2.89c0.66,0.89,1.62,1.63,2.79,1.63c-0.57,0.07-1.17-0.02-1.7-0.3
					c-0.26-0.13-0.5-0.31-0.74-0.48c-0.21-0.2-0.46-0.38-0.65-0.6c-0.8-0.86-1.42-1.86-1.98-2.88c-1.09-2.05-1.86-4.24-2.53-6.44
					c-0.65-2.21-1.2-4.44-1.62-6.7C393.04,254.37,392.67,252.11,392.48,249.82"/>
				<path class="st22" d="M369.23,122.71v-4.49c-4.85,1.97-10.76,2.44-16.07-0.14l-0.02,0v4.5
					C358.48,125,364.33,124.59,369.23,122.71"/>
				<path class="st23" d="M480.72,81.55c0,0-10.05-4.34-22.02-0.96c-11.97,3.39-15.88,19.88-30.72,35.2
					c-14.84,15.31-7.55,21.3-3.38,23.64c4.17,2.34,7.29,3.64,9.89,8.59c2.6,4.95,8.59,8.34,19.27,7.94
					c10.68-0.39,23.33,7.42,28.72,9.76c5.39,2.34,14.76,3.38,18.67-1.82c3.91-5.21-1.56-19.01-1.56-33.33
					c0-14.32,4.37-27.68-4.58-38.19C486.04,81.9,480.72,81.55,480.72,81.55"/>
				<path class="st5" d="M488.71,118.49c0,0-4.8,17.58-14.38,22.38c-9.59,4.8-20.69,1.92-23.82-6.41c-3.13-8.33-2.43-21-1.74-28.12
					c0,0,17.88-3.3,25.86-15.8C474.64,90.54,478.28,112.76,488.71,118.49"/>
				<path class="st5" d="M442.77,105.77c2.28-2.52,5.33,0.63,5.94,1.3c-0.38,4.16-0.72,9.93-0.37,15.62
					c-1.17-0.04-3.41-0.52-5.57-3.19C439.65,115.65,440.23,108.58,442.77,105.77"/>
				<path class="st5" d="M488.71,118.49c0,0,5.02-2.26,6.06,1.38c1.04,3.65-1.56,10.24-6.06,12.32c-2.96,1.37-5.11,0.94-6.23,0.48
					C486.63,126.1,488.71,118.49,488.71,118.49"/>
				<path class="st4" d="M474.54,119.76c-0.55,1.83-0.15,3.56,0.88,3.87c1.03,0.31,2.31-0.93,2.86-2.76
					c0.55-1.83,0.15-3.56-0.88-3.87C476.37,116.7,475.09,117.93,474.54,119.76"/>
				<path class="st4" d="M456.83,114.48c-0.55,1.83-0.15,3.56,0.88,3.87c1.03,0.31,2.31-0.93,2.86-2.76
					c0.55-1.83,0.15-3.56-0.88-3.87C458.66,111.42,457.38,112.65,456.83,114.48"/>
				<path class="st24" d="M467.61,113.75c0,0-0.52,3.43-2.78,6.21c-2.26,2.78-3.12,6.94,0.95,8.24"/>
				<path class="st24" d="M470.16,134.63c0,0-5.76,4.17-9.84-1.13"/>
				<path class="st25" d="M480.71,115.79c0,0,0.35-3.3-2.95-4.34"/>
				<path class="st25" d="M462.14,106.59c0,0-3.73-0.78-5.64,1.82"/>
				<path class="st5" d="M476.42,156.88c-8.14-2.54-9.38-2.6-9.64-4.95c-0.26-2.34,0.01-8.86,0.01-8.86l0,0
					c-4.8,0.49-9.37-0.74-12.58-3.43c0,0,0.19,8.9,0,11.11c-0.19,2.21-3.7,5.21-11.64,7.94l-7.94,2.73c0,0,11.44,20.96,28.31,30.2
					c0,0,14.65-11.85,23.77-30.33C486.7,161.31,484.69,159.46,476.42,156.88"/>
				<path class="st9" d="M485.65,184.61l1.04-23.3c-9.11,18.49-23.76,30.33-23.76,30.33c-16.86-9.24-28.31-30.2-28.31-30.2
					s-6.12,0.86-8.85,4.21c-2.73,3.34-4.73,14.15-6.68,29.25c-1.95,15.1-4.35,32.83,2.84,35.24c9.43,3.16,13.87-19.87,13.87-19.87
					l2.21,4.69c0,0,14.84,0.13,23.82-9.5c0,0,12.37,10.22,18.75,11.75c0,0,4.56-7.45,6.12-15
					C488.26,194.64,485.65,184.61,485.65,184.61"/>
				<path class="st5" d="M438.01,214.94c0,0,2.21,12.76,3.6,18.83c0,0,19.96,4.17,34.54,0l4.43-16.59
					c-6.38-1.53-18.75-11.75-18.75-11.75C452.85,215.07,438.01,214.94,438.01,214.94"/>
				<path class="st12" d="M494.9,277.52c-4.07-19.06-18.75-43.74-18.75-43.74c-14.58,4.17-34.54,0-34.54,0
					c-18.4,31.24-13.45,78.28-13.45,78.28h65.78C493.94,312.06,499.31,298.17,494.9,277.52"/>
				<path class="st26" d="M466.07,205.74c0,1.87-1.52,3.39-3.39,3.39c-1.87,0-3.39-1.52-3.39-3.39c0-1.87,1.52-3.39,3.39-3.39
					C464.56,202.35,466.07,203.87,466.07,205.74"/>
				<path class="st26" d="M461.09,206.2c0,0-6.29,1.26-8.67,6.34c-2.02,4.31-0.48,6.83,2.06,6.12
					C457.01,217.94,460.16,213.33,461.09,206.2"/>
				<path class="st26" d="M463.19,206.2c0,0,6.29,1.26,8.67,6.34c2.02,4.31,0.48,6.83-2.06,6.12
					C467.27,217.94,464.13,213.33,463.19,206.2"/>
				<path class="st27" d="M456.47,235.53c-0.02,1-0.06,1.98-0.06,2.98c-0.03,0.99-0.04,1.98-0.04,2.97c0,1.98,0,3.95,0.06,5.93
					c0.04,1.97,0.17,3.94,0.3,5.91c0.09,0.98,0.16,1.97,0.3,2.95c0.08,0.99,0.27,1.96,0.39,2.95c-0.6-1.9-1.01-3.86-1.29-5.83
					c-0.28-1.98-0.42-3.97-0.48-5.96c-0.04-1.99-0.02-3.98,0.13-5.97C455.9,239.46,456.1,237.48,456.47,235.53"/>
				<path class="st27" d="M456.7,272.09c1.22,3.15,1.98,6.45,2.63,9.76c0.65,3.31,1.06,6.66,1.43,10.01
					c0.32,3.36,0.52,6.72,0.63,10.09l0.06,5.05c-0.05,1.68-0.07,3.37-0.14,5.05c-0.18-3.36-0.31-6.72-0.53-10.08
					c-0.23-3.35-0.43-6.7-0.81-10.04c-0.3-3.34-0.72-6.67-1.24-9.99c-0.26-1.66-0.54-3.31-0.88-4.96
					C457.54,275.35,457.16,273.71,456.7,272.09"/>
				<path class="st27" d="M461.05,239.81c0,0.79-0.64,1.43-1.43,1.43c-0.79,0-1.43-0.64-1.43-1.43c0-0.79,0.64-1.43,1.43-1.43
					C460.41,238.38,461.05,239.02,461.05,239.81"/>
				<path class="st10" d="M466.67,149.39c-0.03-2.79,0.12-6.31,0.12-6.31l0,0c-4.79,0.49-9.37-0.74-12.58-3.43
					c0,0,0.07,3.15,0.08,6.17C456.76,146.89,460.89,148.34,466.67,149.39"/>
				<path class="st28" d="M223.35,68.68c0,0-5.38-6.42,0-12.49c5.38-6.07,15.48-8.67,26.36-8.24c10.88,0.43,21.93,3.03,25.62,9.32
					c0,0,5.92,1.58,6.1,11.41c0.18,9.83-3.28,24.81-3.28,24.81l-49.43-5.86L223.35,68.68z"/>
				<path class="st29" d="M306.7,181.84c-4.17-23.81-7.29-30.69-12.15-34.51c-4.86-3.82-34.88-18.75-34.88-18.75l-8.52,0.86
					l-7.56-1.21c0,0-29.93,15.27-34.79,19.09c-4.86,3.82-7.98,10.69-12.15,34.51c-4.17,23.81,1.04,40.48,9.37,39.44l8.33-1.04
					l-2.08,29.58h37.44h3.93h37.44L289,220.24l8.33,1.04C305.66,222.32,310.87,205.66,306.7,181.84"/>
				<path class="st30" d="M228.17,70.62c0,0-1.67,26.9,7.88,40.79c9.55,13.89,26.56,8.16,31.94,0.69
					c5.38-7.46,7.46-26.56,5.55-40.79c0,0-13.37,2.6-21.52-8.33C252.02,62.98,240.95,71.48,228.17,70.62"/>
				<path class="st28" d="M228.72,87.63L228.72,87.63c-1.02-9.3-0.55-17.02-0.55-17.02c-1.89-0.49-3.48-1.15-4.81-1.94l-0.01,0.01
					c0,0-3.4,6.44,0.75,19.7C226.17,86.7,228.72,87.63,228.72,87.63"/>
				<path class="st30" d="M228.72,87.63L228.72,87.63c0,0-3.77-1.39-5.86,2.25c-2.08,3.65-0.69,14.76,9.63,14.59c0,0,0,0,0,0
					C230.45,99.14,229.32,93.11,228.72,87.63"/>
				<path class="st30" d="M280.53,89.88c-2.08-3.65-5.86-2.25-5.86-2.25s-0.24,0.28-0.63,0.77c-0.36,5.82-1.25,11.46-2.62,16.06
					C281.27,104.25,282.58,93.46,280.53,89.88"/>
				<path class="st4" d="M242.65,85.89c0,2.4-1.05,4.34-2.34,4.34c-1.29,0-2.34-1.94-2.34-4.34c0-2.4,1.05-4.34,2.34-4.34
					C241.6,81.55,242.65,83.49,242.65,85.89"/>
				<path class="st4" d="M264.36,85.89c0,2.4-1.05,4.34-2.34,4.34c-1.29,0-2.34-1.94-2.34-4.34c0-2.4,1.05-4.34,2.34-4.34
					C263.31,81.55,264.36,83.49,264.36,85.89"/>
				<path class="st31" d="M251.15,78.92c0,0-2.6,10.94-3.12,14.58c-0.52,3.65,3.41,4.34,3.41,4.34"/>
				<path class="st31" d="M249.71,106.68c0,0,6.3,3.18,7.86-2.21"/>
				<path class="st32" d="M235.71,77.04c0,0,1.22-4.34,6.94-4.51"/>
				<path class="st32" d="M258.96,73.74c0,0,4.86-0.31,6.94,4.79"/>
				<path class="st30" d="M259.67,118.22c-4.85,1.96-10.76,2.44-16.07-0.14l-0.02,0v10.15l-0.39,0.69
					c-1.32,2.37-1.31,5.26,0.02,7.63l1.22,2.18c3.28,5.85,11.82,5.47,14.56-0.65l1.53-3.41c0.91-2.03,0.58-4.4-0.86-6.09V118.22z"/>
				<path class="st33" d="M214.35,220.24c0.58-0.37,1.09-0.81,1.54-1.31c0.46-0.48,0.88-1.01,1.27-1.54
					c0.78-1.08,1.45-2.24,2.01-3.46c0.6-1.2,1.07-2.46,1.55-3.72l0.66-1.92c0.21-0.65,0.4-1.3,0.64-1.94
					c-0.06,0.68-0.18,1.36-0.27,2.04c-0.13,0.67-0.29,1.34-0.45,2.01c-0.19,0.66-0.39,1.32-0.62,1.97
					c-0.26,0.64-0.49,1.29-0.81,1.91c-0.6,1.25-1.33,2.44-2.24,3.49C216.75,218.81,215.66,219.77,214.35,220.24"/>
				<path class="st33" d="M222.03,170.94c-0.03,2.98-0.18,5.96-0.37,8.93c-0.19,2.97-0.47,5.94-0.75,8.91
					c-0.34,2.96-0.7,5.92-1.18,8.86c-0.5,2.94-1.05,5.89-2.03,8.71c0.14-0.73,0.32-1.45,0.45-2.18c0.12-0.73,0.26-1.46,0.36-2.2
					l0.33-2.2l0.28-2.21c0.36-2.95,0.72-5.9,1-8.86c0.34-2.95,0.61-5.91,0.93-8.87C221.38,176.86,221.68,173.9,222.03,170.94"/>
				<path class="st33" d="M289.11,220.24c-1.3-0.47-2.39-1.43-3.29-2.47c-0.91-1.05-1.64-2.25-2.24-3.49
					c-0.31-0.62-0.55-1.27-0.81-1.91c-0.23-0.65-0.43-1.31-0.62-1.97c-0.16-0.67-0.32-1.34-0.45-2.01c-0.09-0.68-0.2-1.36-0.27-2.04
					c0.24,0.65,0.43,1.3,0.64,1.94l0.66,1.92c0.49,1.26,0.95,2.52,1.55,3.72c0.56,1.21,1.23,2.37,2.01,3.46
					c0.39,0.54,0.81,1.06,1.27,1.54C288.02,219.43,288.54,219.87,289.11,220.24"/>
				<path class="st33" d="M281.43,170.94c0.36,2.96,0.66,5.92,0.97,8.88c0.32,2.96,0.59,5.92,0.93,8.87c0.28,2.96,0.64,5.91,1,8.86
					l0.28,2.21l0.33,2.2c0.1,0.74,0.24,1.46,0.36,2.2c0.13,0.73,0.31,1.45,0.45,2.18c-0.98-2.82-1.54-5.77-2.03-8.71
					c-0.48-2.94-0.84-5.91-1.18-8.86c-0.28-2.97-0.56-5.93-0.75-8.91C281.61,176.9,281.46,173.92,281.43,170.94"/>
				<path class="st34" d="M212.27,249.82c0,0-3.47,33.08-2.95,62.24h40.23l4.13-17.21l3.54,17.21h37.49c0,0,0.02-25.55-3.64-62.24
					H212.27z"/>
				<path class="st21" d="M257.92,249.82c0.31,2.68,0.49,5.36,0.62,8.05c0.14,2.69,0.18,5.38,0.16,8.08
					c-0.04,2.69-0.13,5.39-0.42,8.08c-0.15,1.34-0.32,2.68-0.58,4.01c-0.3,1.31-0.62,2.66-1.33,3.82c0.55-1.23,0.78-2.56,0.94-3.88
					c0.18-1.32,0.29-2.66,0.36-4c0.15-2.67,0.22-5.35,0.24-8.04c0.04-2.68,0.02-5.37,0.03-8.05L257.92,249.82z"/>
				<path class="st21" d="M247.77,253.78c0,0.6-0.49,1.09-1.09,1.09c-0.6,0-1.08-0.49-1.08-1.09s0.49-1.08,1.08-1.08
					C247.28,252.7,247.77,253.18,247.77,253.78"/>
				<path class="st21" d="M219.04,249.82c0.07,2.13-0.13,4.26-0.43,6.37c-0.31,2.11-0.78,4.21-1.43,6.25
					c-0.68,2.03-1.51,4.03-2.61,5.87c-0.6,0.89-1.15,1.82-1.88,2.61c-0.67,0.84-1.49,1.54-2.29,2.23c0.68-0.83,1.43-1.57,1.98-2.47
					c0.65-0.83,1.13-1.77,1.66-2.67c0.96-1.87,1.74-3.82,2.39-5.82c0.66-2,1.14-4.05,1.59-6.11c0.23-1.03,0.41-2.07,0.57-3.12
					C218.78,251.92,218.91,250.87,219.04,249.82"/>
				<path class="st21" d="M282.92,249.82l0.78,3.35c0.25,1.12,0.52,2.23,0.8,3.34c0.56,2.21,1.13,4.43,1.79,6.6
					c0.65,2.18,1.39,4.33,2.32,6.4c0.48,1.02,1.02,2.02,1.72,2.89c0.66,0.89,1.62,1.63,2.79,1.63c-0.57,0.07-1.17-0.02-1.7-0.3
					c-0.26-0.13-0.5-0.31-0.74-0.48c-0.21-0.2-0.46-0.38-0.65-0.6c-0.8-0.86-1.42-1.86-1.98-2.88c-1.09-2.05-1.86-4.24-2.53-6.44
					c-0.65-2.21-1.2-4.44-1.62-6.7C283.48,254.37,283.11,252.11,282.92,249.82"/>
				<path class="st35" d="M259.67,122.71v-4.49c-4.85,1.97-10.76,2.44-16.07-0.14l-0.02,0v4.5
					C248.92,125,254.77,124.59,259.67,122.71"/>
				<rect x="163.26" y="180.59" class="st36" width="295.96" height="117.36"/>
				<path class="st5" d="M469.29,219.65l-5.48,0.68c0,0-2.63-0.12-3.59,1.06c-0.96,1.18-1.88,5.72-1.88,5.72s-8.1,6.25-8.94,7.45
					c-0.84,1.2-1.32,2.32-0.69,3.5c0.63,1.19,2.29,0.49,3.88-0.56c1.59-1.05,5.74-4.05,5.74-4.05s1.17,1.6,1.97,1.81
					c0.8,0.21,1.38,1.21,2.98,2.42c1.6,1.21,3.26,2.37,5.15,0.89c1.88-1.48,7.29-5.75,8.49-10.69
					C476.94,227.88,473.14,224.61,469.29,219.65"/>
				<path class="st9" d="M486.7,161.31c0,0,5.13-1.2,9.44,6.35c2.77,4.86,8.68,28.62,10.76,34.87s1.6,8.33-1.02,10.07
					c-2.62,1.74-29.7,17.53-29.7,17.53s-5.21-4.51-6.94-10.93c0,0,8.33-5.9,12.15-9.72c3.82-3.82,8.64-7.29,8.64-7.29
					s-5.23-13.64-5.99-21.6S483.53,164.17,486.7,161.31"/>
				<path class="st12" d="M490.01,202.19c0.51-0.26,1.06-0.4,1.61-0.49c0.55-0.09,1.12-0.1,1.68-0.07c1.12,0.08,2.26,0.39,3.17,1.08
					c-0.57-0.04-1.1-0.12-1.63-0.16c-0.53-0.04-1.06-0.1-1.59-0.13C492.2,202.33,491.14,202.31,490.01,202.19"/>
				<path class="st6" d="M104.35,185c0,0-2.26,3.04-4.77,15.75c-2.52,12.71-9.63,35.45-8.94,39.62c0.69,4.17,12.32,6.94,24.99,7.99
					c12.67,1.04,17.89,2.68,20.48,0c1.39-1.91,1.74-11.28,1.56-13.54c-0.17-2.26-1.22-4.86-3.65-4.51
					c-2.43,0.35-18.57-1.56-18.57-1.56s0.17-1.91-1.3-2.26l3.56-12.5c0,0-0.95-8.24-3.47-15.79
					C111.73,190.64,108.43,186.74,104.35,185"/>
				<path class="st5" d="M137.68,234.82l4.95-3.04c0,0,2.08-1.82,3.65-1.48c1.56,0.35,5.29,3.47,5.29,3.47s10.76-0.17,12.24,0.26
					c1.48,0.43,2.6,1.04,2.86,2.43c0.26,1.39-1.56,1.91-3.56,2.08c-2,0.17-7.38,0.43-7.38,0.43s0.09,2.08-0.43,2.78
					c-0.52,0.69-0.35,1.9-0.87,3.94c-0.52,2.04-1.13,4.09-3.64,4.11c-2.52,0.02-9.76,0.05-13.99-3.22
					C136.79,246.59,137.77,241.41,137.68,234.82"/>
				<path class="st12" d="M114.16,226.49c-0.99,0.08-1.92,0.21-2.82,0.47c-0.91,0.24-1.74,0.64-2.64,1.09
					c0.3-0.39,0.66-0.76,1.1-1.03c0.42-0.29,0.9-0.49,1.38-0.63C112.15,226.12,113.22,226.1,114.16,226.49"/>
				<path class="st12" d="M115.46,228.74c-0.68,0.46-1.36,0.83-2.02,1.22c-0.67,0.38-1.3,0.79-2.02,1.21
					c0.37-0.74,1.02-1.31,1.72-1.72C113.85,229.05,114.63,228.76,115.46,228.74"/>
				<path class="st5" d="M199.11,180.68c0,0,0.65-5.84-0.44-6.65c-1.09-0.81-2.85-0.81-2.85-0.81s-1.49-2.04-3.39-2.31
					c0,0-1.36-2.17-5.02-1.36c-3.66,0.81-7.33,1.76-7.87,4.07c-0.54,2.31-2.03,11.67-1.49,12.62c0.54,0.95,2.31,2.98,3.26,1.36
					c0,0,0.95,2.31,2.85,1.76c1.9-0.54,2.04-3.53,2.04-3.53s2.85,2.85,4.61-0.81c1.76-3.66,3.38-4.31,3.38-4.31L199.11,180.68z"/>
				<path class="st37" d="M192.76,174.75c-0.98,0.61-1.91,1.28-2.75,2.01c-0.42,0.37-0.83,0.75-1.17,1.18
					c-0.36,0.41-0.67,0.86-0.88,1.34c-0.45,0.99-0.76,2.1-1.04,3.18c-0.27,1.1-0.47,2.22-0.73,3.36c-0.06-1.15-0.06-2.32,0.12-3.47
					c0.17-1.16,0.44-2.29,0.93-3.4c0.53-1.13,1.43-1.99,2.38-2.67C190.58,175.59,191.65,175.09,192.76,174.75"/>
				<path class="st37" d="M187.67,173.02c-1.34,0.5-2.54,1.3-3.37,2.37c-0.41,0.54-0.73,1.13-0.9,1.77
					c-0.19,0.66-0.34,1.35-0.47,2.04c-0.29,1.38-0.52,2.78-0.78,4.18c-0.25,1.4-0.53,2.8-0.83,4.2c0-2.87,0.29-5.72,0.84-8.54
					c0.15-0.71,0.31-1.4,0.54-2.11c0.24-0.72,0.63-1.4,1.14-1.95C184.84,173.87,186.25,173.22,187.67,173.02"/>
				<path class="st14" d="M414.77,180.68c0,0,0.65-5.84-0.44-6.65c-1.09-0.81-2.85-0.81-2.85-0.81s-1.49-2.04-3.39-2.31
					c0,0-1.36-2.17-5.02-1.36c-3.66,0.81-7.33,1.76-7.87,4.07c-0.54,2.31-2.03,11.67-1.49,12.62c0.54,0.95,2.31,2.98,3.26,1.36
					c0,0,0.95,2.31,2.85,1.76c1.9-0.54,2.03-3.53,2.03-3.53s2.85,2.85,4.61-0.81c1.76-3.66,3.37-4.31,3.37-4.31L414.77,180.68z"/>
				<path class="st38" d="M408.42,174.75c-0.98,0.61-1.91,1.28-2.75,2.01c-0.42,0.37-0.83,0.75-1.17,1.18
					c-0.36,0.41-0.67,0.86-0.88,1.34c-0.45,0.99-0.76,2.1-1.04,3.18c-0.27,1.1-0.47,2.22-0.73,3.36c-0.06-1.15-0.06-2.32,0.12-3.47
					c0.17-1.16,0.44-2.29,0.93-3.4c0.53-1.13,1.43-1.99,2.38-2.67C406.24,175.59,407.31,175.09,408.42,174.75"/>
				<path class="st38" d="M403.33,173.02c-1.34,0.5-2.54,1.3-3.37,2.37c-0.41,0.54-0.73,1.13-0.9,1.77
					c-0.19,0.66-0.34,1.35-0.47,2.04c-0.29,1.38-0.52,2.78-0.78,4.18c-0.25,1.4-0.53,2.8-0.83,4.2c0-2.87,0.29-5.72,0.84-8.54
					c0.15-0.71,0.31-1.4,0.54-2.11c0.24-0.72,0.63-1.4,1.14-1.95C400.51,173.87,401.91,173.22,403.33,173.02"/>
				<path class="st5" d="M419.29,180.68c0,0-0.65-5.84,0.44-6.65c1.09-0.81,2.85-0.81,2.85-0.81s1.49-2.04,3.39-2.31
					c0,0,1.36-2.17,5.02-1.36c3.66,0.81,7.33,1.76,7.87,4.07c0.54,2.31,2.03,11.67,1.49,12.62c-0.54,0.95-2.31,2.98-3.26,1.36
					c0,0-0.95,2.31-2.85,1.76c-1.9-0.54-2.03-3.53-2.03-3.53s-2.85,2.85-4.61-0.81c-1.76-3.66-3.37-4.31-3.37-4.31L419.29,180.68z"
					/>
				<path class="st37" d="M425.64,174.75c1.11,0.34,2.18,0.84,3.13,1.53c0.96,0.68,1.85,1.54,2.38,2.67
					c0.49,1.11,0.76,2.24,0.93,3.4c0.18,1.15,0.17,2.32,0.12,3.47c-0.25-1.13-0.45-2.26-0.73-3.36c-0.28-1.09-0.59-2.2-1.04-3.18
					c-0.21-0.48-0.52-0.93-0.88-1.34c-0.34-0.43-0.75-0.8-1.17-1.18C427.54,176.03,426.62,175.36,425.64,174.75"/>
				<path class="st37" d="M430.73,173.02c1.42,0.2,2.82,0.85,3.84,1.97c0.51,0.55,0.91,1.23,1.14,1.95c0.23,0.71,0.39,1.4,0.54,2.11
					c0.55,2.82,0.84,5.67,0.84,8.54c-0.3-1.4-0.58-2.8-0.83-4.2c-0.26-1.4-0.5-2.8-0.78-4.18c-0.13-0.69-0.29-1.39-0.47-2.04
					c-0.17-0.65-0.49-1.24-0.9-1.77C433.27,174.32,432.06,173.52,430.73,173.02"/>
				<path class="st14" d="M308.34,180.68c0,0-0.65-5.84,0.44-6.65c1.09-0.81,2.85-0.81,2.85-0.81s1.49-2.04,3.39-2.31
					c0,0,1.36-2.17,5.02-1.36c3.66,0.81,7.33,1.76,7.87,4.07c0.54,2.31,2.03,11.67,1.49,12.62c-0.54,0.95-2.31,2.98-3.26,1.36
					c0,0-0.95,2.31-2.85,1.76c-1.9-0.54-2.03-3.53-2.03-3.53s-2.85,2.85-4.61-0.81c-1.76-3.66-3.37-4.31-3.37-4.31L308.34,180.68z"
					/>
				<path class="st38" d="M314.69,174.75c1.11,0.34,2.17,0.84,3.13,1.53c0.96,0.68,1.85,1.54,2.38,2.67
					c0.49,1.11,0.76,2.24,0.93,3.4c0.18,1.15,0.17,2.32,0.12,3.47c-0.25-1.13-0.45-2.26-0.73-3.36c-0.28-1.09-0.59-2.2-1.04-3.18
					c-0.21-0.48-0.52-0.93-0.88-1.34c-0.34-0.43-0.75-0.8-1.17-1.18C316.6,176.03,315.67,175.36,314.69,174.75"/>
				<path class="st38" d="M319.78,173.02c1.41,0.2,2.82,0.85,3.84,1.97c0.51,0.55,0.91,1.23,1.14,1.95c0.23,0.71,0.39,1.4,0.54,2.11
					c0.55,2.82,0.84,5.67,0.84,8.54c-0.3-1.4-0.58-2.8-0.83-4.2c-0.26-1.4-0.5-2.8-0.78-4.18c-0.13-0.69-0.29-1.39-0.47-2.04
					c-0.17-0.65-0.49-1.24-0.9-1.77C322.32,174.32,321.12,173.52,319.78,173.02"/>
				<path class="st30" d="M305.21,180.68c0,0,0.65-5.84-0.44-6.65c-1.09-0.81-2.85-0.81-2.85-0.81s-1.49-2.04-3.39-2.31
					c0,0-1.36-2.17-5.02-1.36c-3.66,0.81-7.33,1.76-7.87,4.07c-0.54,2.31-2.03,11.67-1.49,12.62c0.54,0.95,2.31,2.98,3.26,1.36
					c0,0,0.95,2.31,2.85,1.76c1.9-0.54,2.04-3.53,2.04-3.53s2.85,2.85,4.61-0.81c1.76-3.66,3.37-4.31,3.37-4.31L305.21,180.68z"/>
				<path class="st39" d="M298.86,174.75c-0.98,0.61-1.91,1.28-2.75,2.01c-0.42,0.37-0.83,0.75-1.17,1.18
					c-0.36,0.41-0.67,0.86-0.88,1.34c-0.45,0.99-0.76,2.1-1.04,3.18c-0.27,1.1-0.47,2.22-0.73,3.36c-0.05-1.15-0.06-2.32,0.12-3.47
					c0.17-1.16,0.44-2.29,0.93-3.4c0.53-1.13,1.43-1.99,2.38-2.67C296.68,175.59,297.75,175.09,298.86,174.75"/>
				<path class="st39" d="M293.77,173.02c-1.34,0.5-2.54,1.3-3.37,2.37c-0.41,0.54-0.73,1.13-0.9,1.77
					c-0.19,0.66-0.34,1.35-0.47,2.04c-0.29,1.38-0.52,2.78-0.78,4.18c-0.25,1.4-0.53,2.8-0.83,4.2c0-2.87,0.29-5.72,0.84-8.54
					c0.15-0.71,0.31-1.4,0.54-2.11c0.24-0.72,0.63-1.4,1.14-1.95C290.94,173.87,292.35,173.22,293.77,173.02"/>
				<path class="st30" d="M198.78,180.68c0,0-0.65-5.84,0.44-6.65c1.09-0.81,2.85-0.81,2.85-0.81s1.49-2.04,3.39-2.31
					c0,0,1.36-2.17,5.02-1.36c3.66,0.81,7.33,1.76,7.87,4.07c0.54,2.31,2.04,11.67,1.49,12.62c-0.54,0.95-2.31,2.98-3.26,1.36
					c0,0-0.95,2.31-2.85,1.76c-1.9-0.54-2.03-3.53-2.03-3.53s-2.85,2.85-4.61-0.81c-1.76-3.66-3.37-4.31-3.37-4.31L198.78,180.68z"
					/>
				<path class="st39" d="M205.13,174.75c1.11,0.34,2.18,0.84,3.13,1.53c0.96,0.68,1.85,1.54,2.38,2.67
					c0.49,1.11,0.76,2.24,0.93,3.4c0.18,1.15,0.17,2.32,0.12,3.47c-0.25-1.13-0.45-2.26-0.73-3.36c-0.28-1.09-0.59-2.2-1.04-3.18
					c-0.21-0.48-0.52-0.93-0.88-1.34c-0.34-0.43-0.75-0.8-1.17-1.18C207.04,176.03,206.11,175.36,205.13,174.75"/>
				<path class="st39" d="M210.22,173.02c1.42,0.2,2.82,0.85,3.84,1.97c0.51,0.55,0.91,1.23,1.14,1.95c0.23,0.71,0.39,1.4,0.54,2.11
					c0.55,2.82,0.84,5.67,0.84,8.54c-0.3-1.4-0.58-2.8-0.83-4.2c-0.26-1.4-0.5-2.8-0.78-4.18c-0.13-0.69-0.29-1.39-0.47-2.04
					c-0.17-0.65-0.49-1.24-0.9-1.77C212.76,174.32,211.56,173.52,210.22,173.02"/>
			</g>
			<g class="st2">
				<defs>
					<rect id="SVGID_7_" x="0.16" y="-22.88" width="594.47" height="396.31"/>
				</defs>
				<clipPath id="SVGID_8_">
					<use xlink:href="#SVGID_7_"  style="overflow:visible;"/>
				</clipPath>
				<path class="st40" d="M305.41,346.06c-0.34,0.35-0.64,0.74-0.88,1.15l-0.37-0.19c-0.05-0.24-0.28-0.4-0.52-0.37
					c-0.26,0.03-0.45,0.27-0.42,0.53s0.27,0.45,0.53,0.42c0.05-0.01,0.1-0.02,0.15-0.04l0.36,0.19c-0.2,0.44-0.34,0.9-0.43,1.38
					l0.59,0.1c0.18-1.04,0.67-1.99,1.42-2.75L305.41,346.06z"/>
				<path class="st40" d="M309.75,344.23c-0.14,0-0.27,0.01-0.4,0.01l-0.06-0.5c0.15-0.12,0.23-0.31,0.21-0.51
					c-0.04-0.31-0.32-0.54-0.63-0.5c-0.31,0.04-0.53,0.32-0.5,0.63c0.02,0.2,0.15,0.37,0.32,0.45l0.06,0.49
					c-0.57,0.09-1.11,0.26-1.63,0.51l0.26,0.54c0.74-0.36,1.54-0.53,2.37-0.53c0.39,0,0.79,0.04,1.17,0.12l0.13-0.59
					C310.63,344.28,310.19,344.23,309.75,344.23"/>
				<path class="st40" d="M314.99,346.25c0.26-0.03,0.45-0.27,0.42-0.53c-0.03-0.26-0.27-0.45-0.53-0.42
					c-0.25,0.03-0.42,0.24-0.42,0.48l-0.33,0.29c-0.33-0.34-0.7-0.64-1.12-0.9l-0.32,0.51c0.9,0.57,1.6,1.37,2.03,2.32l0.55-0.25
					c-0.2-0.44-0.45-0.85-0.75-1.22l0.32-0.28C314.88,346.25,314.94,346.26,314.99,346.25"/>
				<path class="st40" d="M309.32,352.32c-0.31,0.02-0.61,0.03-0.92,0.03c-0.7,0-1.37-0.05-1.96-0.14
					c-0.31-0.05-0.67-0.12-1.01-0.23c0.83,1.48,2.43,2.48,4.27,2.48c2.26,0,4.17-1.52,4.72-3.57c-0.54,0.36-1.19,0.65-1.95,0.89
					C311.54,352.06,310.45,352.25,309.32,352.32"/>
				<path class="st40" d="M309.75,345.43c-2.66,0-4.82,2.11-4.82,4.71c0,0.34,0.04,0.67,0.11,1c0.53,0.38,2.15,0.7,4.24,0.58
					c2.28-0.14,4.2-0.76,5.29-1.71c0-0.15-0.02-0.31-0.04-0.46C314.23,347.2,312.18,345.43,309.75,345.43 M308.04,350.6
					c-0.81,0-1.47-0.66-1.47-1.47c0-0.81,0.66-1.47,1.47-1.47c0.81,0,1.47,0.66,1.47,1.47C309.51,349.94,308.85,350.6,308.04,350.6
					 M311.8,349.88c-0.59,0-1.08-0.48-1.08-1.08c0-0.59,0.48-1.08,1.08-1.08c0.59,0,1.08,0.48,1.08,1.08
					C312.88,349.39,312.39,349.88,311.8,349.88"/>
				<path class="st40" d="M322.44,346.91c-0.23-0.09-0.64-0.24-1.1-0.19c-0.44,0.05-0.67,0.27-0.67,0.8v0.69h1.77v1.36h-1.77v4.32
					h-1.53v-4.32h-1.06v-1.36h1.06v-0.7c0-1.33,0.71-2.21,2.04-2.21c0.51,0,0.92,0.1,1.26,0.24V346.91z"/>
				<path class="st40" d="M326.17,349.55c-0.14-0.02-0.28-0.04-0.42-0.04c-0.71,0-1.2,0.43-1.2,1.28v3.1h-1.53v-5.68h1.48v0.62
					c0.36-0.53,0.9-0.78,1.6-0.78c0.33,0,0.67,0.1,0.87,0.27L326.17,349.55z"/>
				<path class="st40" d="M332.24,351.04c0,0.18-0.01,0.39-0.03,0.52h-4.03c0.16,0.82,0.74,1.18,1.46,1.18
					c0.49,0,1.03-0.2,1.44-0.55l0.9,0.99c-0.64,0.59-1.47,0.86-2.42,0.86c-1.74,0-2.95-1.18-2.95-2.97c0-1.79,1.17-3.01,2.87-3.01
					C331.12,348.06,332.24,349.27,332.24,351.04 M328.19,350.51h2.52c-0.14-0.73-0.58-1.14-1.24-1.14
					C328.75,349.38,328.33,349.81,328.19,350.51"/>
				<path class="st40" d="M338.31,351.04c0,0.18-0.01,0.39-0.03,0.52h-4.03c0.16,0.82,0.74,1.18,1.46,1.18
					c0.49,0,1.03-0.2,1.44-0.55l0.9,0.99c-0.64,0.59-1.47,0.86-2.42,0.86c-1.74,0-2.95-1.18-2.95-2.97c0-1.79,1.17-3.01,2.87-3.01
					C337.18,348.06,338.3,349.27,338.31,351.04 M334.26,350.51h2.52c-0.14-0.73-0.58-1.14-1.24-1.14
					C334.81,349.38,334.39,349.81,334.26,350.51"/>
				<path class="st40" d="M344.93,351.05c0,1.71-1.18,2.99-2.75,2.99c-0.76,0-1.3-0.3-1.67-0.74v2.94h-1.53v-8.03h1.5v0.63
					c0.37-0.46,0.91-0.78,1.69-0.78C343.74,348.06,344.93,349.34,344.93,351.05 M340.43,351.05c0,0.9,0.59,1.57,1.46,1.57
					c0.9,0,1.47-0.7,1.47-1.57c0-0.87-0.56-1.57-1.47-1.57C341.02,349.48,340.43,350.15,340.43,351.05"/>
				<path class="st40" d="M347.38,346.35c0,0.55-0.43,0.97-0.98,0.97c-0.55,0-0.97-0.42-0.97-0.97c0-0.55,0.42-0.99,0.97-0.99
					C346.96,345.36,347.38,345.8,347.38,346.35 M347.18,353.89h-1.53v-5.68h1.53V353.89z"/>
				<polygon class="st40" points="349.73,350.23 351.88,348.21 353.75,348.21 351,350.88 353.77,353.89 351.89,353.89 
					349.73,351.59 349.73,353.89 348.2,353.89 348.2,345.45 349.73,345.45 				"/>
				<path class="st40" d="M245.41,353.84v-0.84c-0.42,0.57-1.1,0.98-1.89,0.98c-1.46,0-2.5-1.12-2.5-2.94c0-1.79,1.02-2.95,2.5-2.95
					c0.75,0,1.44,0.37,1.89,0.99v-2.98h0.87v7.74H245.41z M245.41,352.32v-2.54c-0.31-0.49-0.99-0.91-1.68-0.91
					c-1.13,0-1.8,0.93-1.8,2.17c0,1.24,0.67,2.16,1.8,2.16C244.42,353.2,245.1,352.81,245.41,352.32"/>
				<path class="st40" d="M247.41,351.03c0-1.63,1.16-2.94,2.76-2.94c1.69,0,2.69,1.32,2.69,3.01v0.22h-4.54
					c0.07,1.06,0.81,1.94,2.02,1.94c0.64,0,1.29-0.26,1.73-0.71l0.42,0.57c-0.56,0.56-1.31,0.86-2.23,0.86
					C248.6,353.98,247.41,352.79,247.41,351.03 M250.16,348.81c-1.2,0-1.79,1.01-1.83,1.87H252
					C251.99,349.85,251.44,348.81,250.16,348.81"/>
				<path class="st40" d="M253.49,353.1l0.45-0.63c0.37,0.43,1.08,0.8,1.85,0.8c0.86,0,1.32-0.41,1.32-0.96
					c0-1.36-3.47-0.52-3.47-2.6c0-0.87,0.76-1.61,2.09-1.61c0.95,0,1.63,0.36,2.08,0.81l-0.41,0.6c-0.34-0.41-0.95-0.71-1.67-0.71
					c-0.77,0-1.24,0.38-1.24,0.88c0,1.23,3.47,0.42,3.47,2.6c0,0.94-0.75,1.69-2.21,1.69C254.84,353.98,254.06,353.7,253.49,353.1"
					/>
				<path class="st40" d="M258.94,346.85c0-0.32,0.27-0.59,0.58-0.59c0.33,0,0.59,0.27,0.59,0.59s-0.27,0.58-0.59,0.58
					C259.2,347.43,258.94,347.18,258.94,346.85 M259.09,348.23h0.87v5.61h-0.87V348.23z"/>
				<path class="st40" d="M261.4,355.28l0.44-0.65c0.46,0.56,1.02,0.77,1.82,0.77c0.93,0,1.8-0.45,1.8-1.68v-0.8
					c-0.41,0.57-1.09,1-1.88,1c-1.46,0-2.5-1.09-2.5-2.9c0-1.8,1.02-2.91,2.5-2.91c0.75,0,1.43,0.37,1.88,0.99v-0.85h0.87v5.45
					c0,1.86-1.3,2.44-2.67,2.44C262.71,356.12,262.06,355.93,261.4,355.28 M265.46,352.23v-2.45c-0.3-0.49-0.97-0.91-1.67-0.91
					c-1.13,0-1.8,0.89-1.8,2.14c0,1.23,0.67,2.14,1.8,2.14C264.49,353.14,265.16,352.72,265.46,352.23"/>
				<path class="st40" d="M271.57,353.84v-3.67c0-0.99-0.5-1.3-1.25-1.3c-0.68,0-1.34,0.42-1.66,0.87v4.1h-0.87v-5.61h0.87v0.81
					c0.39-0.46,1.16-0.95,2-0.95c1.17,0,1.79,0.59,1.79,1.81v3.94H271.57z"/>
				<path class="st40" d="M273.56,351.03c0-1.63,1.16-2.94,2.76-2.94c1.69,0,2.69,1.32,2.69,3.01v0.22h-4.54
					c0.07,1.06,0.81,1.94,2.02,1.94c0.64,0,1.29-0.26,1.73-0.71l0.42,0.57c-0.56,0.56-1.31,0.86-2.23,0.86
					C274.76,353.98,273.56,352.79,273.56,351.03 M276.32,348.81c-1.2,0-1.79,1.01-1.83,1.87h3.68
					C278.15,349.85,277.59,348.81,276.32,348.81"/>
				<path class="st40" d="M284.2,353.84v-0.84c-0.42,0.57-1.1,0.98-1.89,0.98c-1.46,0-2.5-1.12-2.5-2.94c0-1.79,1.02-2.95,2.5-2.95
					c0.75,0,1.44,0.37,1.89,0.99v-2.98h0.87v7.74H284.2z M284.2,352.32v-2.54c-0.31-0.49-0.99-0.91-1.68-0.91
					c-1.13,0-1.8,0.93-1.8,2.17c0,1.24,0.67,2.16,1.8,2.16C283.21,353.2,283.89,352.81,284.2,352.32"/>
				<path class="st40" d="M289.23,353.84v-7.74h0.87v2.98c0.45-0.62,1.13-0.99,1.89-0.99c1.46,0,2.5,1.16,2.5,2.95
					c0,1.82-1.03,2.94-2.5,2.94c-0.79,0-1.47-0.41-1.89-0.97v0.84H289.23z M291.77,353.2c1.14,0,1.81-0.92,1.81-2.16
					c0-1.24-0.67-2.17-1.81-2.17c-0.68,0-1.37,0.42-1.67,0.91v2.54C290.4,352.81,291.08,353.2,291.77,353.2"/>
				<path class="st40" d="M295.44,355.25c0.13,0.06,0.34,0.09,0.48,0.09c0.38,0,0.64-0.13,0.84-0.59l0.37-0.85l-2.35-5.67h0.94
					l1.87,4.6l1.86-4.6h0.95l-2.81,6.75c-0.34,0.81-0.91,1.13-1.65,1.14c-0.19,0-0.48-0.03-0.64-0.08L295.44,355.25z"/>
			</g>
		</g>
	</g>
</g>
<g>
	<path class="st41" d="M208.48,239.37c0.8-1.2,1.19-2.63,1.19-4.28c0-1.66-0.39-3.09-1.18-4.3c-0.79-1.21-1.91-2.14-3.36-2.8
		c-1.45-0.66-3.17-0.99-5.14-0.99h-9.65v22.29h5.57v-6.5h4.85h0.28l4.64,6.5h4.4l-5-7.17C206.55,241.49,207.68,240.57,208.48,239.37
		z M203.32,238.1c-0.77,0.65-1.9,0.97-3.38,0.97h-4.02v-7.43h4.02c1.48,0,2.61,0.32,3.38,0.96c0.77,0.64,1.16,1.56,1.16,2.76
		C204.47,236.54,204.09,237.45,203.32,238.1z"/>
	<path class="st41" d="M226.58,232.68c-1.37-0.73-2.89-1.09-4.58-1.09c-1.73,0-3.29,0.38-4.69,1.14c-1.4,0.76-2.5,1.81-3.3,3.17
		c-0.8,1.36-1.2,2.88-1.2,4.56c0,1.71,0.4,3.23,1.22,4.58c0.81,1.35,1.96,2.4,3.46,3.15c1.49,0.76,3.21,1.14,5.15,1.14
		c3.12,0,5.48-0.93,7.11-2.78l-2.66-2.88c-0.6,0.58-1.24,1-1.94,1.26c-0.69,0.27-1.49,0.4-2.38,0.4c-1.3,0-2.39-0.31-3.26-0.93
		c-0.88-0.62-1.43-1.46-1.66-2.53h13.03c0.06-0.83,0.1-1.28,0.1-1.34c0-1.79-0.39-3.37-1.17-4.72
		C229.02,234.44,227.95,233.4,226.58,232.68z M217.78,239.08c0.17-1.11,0.64-1.98,1.41-2.62c0.77-0.64,1.72-0.96,2.85-0.96
		c1.11,0,2.05,0.33,2.82,0.98c0.77,0.65,1.24,1.52,1.41,2.61H217.78z"/>
	<path class="st41" d="M247,234.43c-0.98-1.64-2.88-2.46-5.37-2.46c-1.58,0-3.03,0.35-4.34,1.04c-1.31,0.69-2.35,1.67-3.12,2.93
		c-0.77,1.26-1.15,2.71-1.15,4.35c0,1.64,0.38,3.09,1.15,4.35c0.77,1.26,1.81,2.24,3.12,2.93c1.31,0.69,2.76,1.04,4.34,1.04
		c2.33,0,6.3-2.14,6.3-2.14v0.74c0,0-1.27,2.76-2.09,3.54c-0.82,0.78-2.1,1.17-3.82,1.17c-1.11,0-2.22-0.18-3.33-0.53
		c-1.11-0.35-2.03-0.83-2.75-1.42l-1.98,3.58c0.98,0.77,2.22,1.36,3.71,1.76c1.49,0.41,3.07,0.61,4.74,0.61
		c3.16,0,5.56-0.77,7.2-2.3c1.64-1.54,2.46-3.88,2.05-7.04v-13.98H247V234.43z M245.87,243.34c-0.84,0.78-1.93,1.17-3.25,1.17
		c-1.32,0-2.41-0.39-3.27-1.17s-1.28-1.8-1.28-3.06s0.43-2.28,1.28-3.06c0.85-0.78,1.94-1.17,3.27-1.17c1.32,0,2.41,0.39,3.25,1.17
		c0.84,0.78,1.26,1.8,1.26,3.06S246.71,242.56,245.87,243.34z"/>
	<rect x="257.22" y="231.65" class="st41" width="4.64" height="17.65"/>
	<path class="st41" d="M259.2,224.25c-0.92,0-1.66,0.27-2.24,0.8c-0.58,0.53-0.86,1.2-0.86,1.98c0,0.79,0.29,1.45,0.86,1.98
		c0.58,0.53,1.32,0.8,2.24,0.8s1.66-0.27,2.24-0.82c0.58-0.54,0.86-1.23,0.86-2.06c0-0.77-0.29-1.41-0.86-1.92
		C260.87,224.5,260.12,224.25,259.2,224.25z"/>
	<path class="st41" d="M276.93,239.82c-0.9-0.27-2.05-0.52-3.46-0.75c-1.26-0.19-2.18-0.4-2.75-0.61c-0.58-0.21-0.86-0.59-0.86-1.12
		c0-0.47,0.27-0.85,0.8-1.15c0.53-0.3,1.33-0.45,2.4-0.45c1.79,0,3.45,0.43,4.96,1.28l1.66-3.55c-0.79-0.47-1.79-0.84-2.99-1.1
		c-1.21-0.27-2.42-0.4-3.63-0.4c-1.64,0-3.07,0.23-4.27,0.7c-1.21,0.47-2.12,1.13-2.75,1.97c-0.63,0.84-0.94,1.81-0.94,2.9
		c0,1.3,0.34,2.3,1.01,3.01c0.67,0.7,1.47,1.2,2.38,1.47c0.92,0.28,2.08,0.52,3.49,0.74c1.19,0.15,2.08,0.33,2.66,0.54
		c0.58,0.21,0.86,0.57,0.86,1.06c0,1.05-1.06,1.57-3.17,1.57c-1.05,0-2.11-0.15-3.2-0.46c-1.09-0.31-2.02-0.71-2.78-1.2l-1.66,3.58
		c0.81,0.53,1.9,0.98,3.26,1.33c1.37,0.35,2.76,0.53,4.19,0.53c1.69,0,3.14-0.23,4.37-0.69c1.23-0.46,2.16-1.1,2.8-1.94
		c0.64-0.83,0.96-1.78,0.96-2.85c0-1.26-0.33-2.24-0.99-2.94C278.61,240.57,277.83,240.09,276.93,239.82z"/>
	<path class="st41" d="M290.79,245.57c-0.64,0-1.13-0.2-1.47-0.59c-0.35-0.39-0.52-0.95-0.52-1.68v-7.01h4.64v-3.72h-4.64v-4.64
		h-4.64v4.64h-2.79v3.72h2.79v7.07c0,2.03,0.52,3.56,1.56,4.61c1.04,1.05,2.52,1.57,4.42,1.57c0.73,0,1.43-0.09,2.1-0.27
		c0.66-0.18,1.23-0.45,1.68-0.82l-1.25-3.52C292.15,245.36,291.52,245.57,290.79,245.57z"/>
	<path class="st41" d="M309.2,232.68c-1.37-0.73-2.89-1.09-4.58-1.09c-1.73,0-3.29,0.38-4.69,1.14c-1.4,0.76-2.5,1.81-3.3,3.17
		c-0.8,1.36-1.2,2.88-1.2,4.56c0,1.71,0.41,3.23,1.22,4.58c0.81,1.35,1.96,2.4,3.46,3.15c1.49,0.76,3.21,1.14,5.15,1.14
		c3.12,0,5.48-0.93,7.11-2.78l-2.66-2.88c-0.6,0.58-1.24,1-1.94,1.26s-1.49,0.4-2.38,0.4c-1.3,0-2.39-0.31-3.27-0.93
		c-0.88-0.62-1.43-1.46-1.66-2.53h13.03c0.06-0.83,0.1-1.28,0.1-1.34c0-1.79-0.39-3.37-1.17-4.72
		C311.64,234.44,310.56,233.4,309.2,232.68z M300.4,239.08c0.17-1.11,0.64-1.98,1.41-2.62s1.72-0.96,2.85-0.96
		c1.11,0,2.05,0.33,2.82,0.98s1.24,1.52,1.41,2.61H300.4z"/>
	<path class="st41" d="M322.23,234.42v-2.77h-5.57v17.65h5.57v-8.13c0-1.6,0.4-2.8,1.19-3.6c0.79-0.8,1.89-1.2,3.29-1.2
		c0.19,0,0.55,0.02,1.1,0.06v-4.39c-1.25,0-2.34,0.2-3.3,0.6C323.55,233.04,322.79,233.63,322.23,234.42z"/>
	<polygon class="st41" points="355.66,236.29 345.45,236.29 345.45,227 339.87,227 339.87,249.29 345.45,249.29 345.45,240.01 
		355.66,240.01 355.66,249.29 361.24,249.29 361.24,227 355.66,227 	"/>
	<path class="st41" d="M378.11,232.68c-1.37-0.73-2.89-1.09-4.58-1.09c-1.73,0-3.29,0.38-4.69,1.14c-1.4,0.76-2.5,1.81-3.3,3.17
		c-0.8,1.36-1.2,2.88-1.2,4.56c0,1.71,0.41,3.23,1.22,4.58c0.81,1.35,1.96,2.4,3.46,3.15c1.49,0.76,3.21,1.14,5.15,1.14
		c3.12,0,5.48-0.93,7.11-2.78l-2.66-2.88c-0.6,0.58-1.24,1-1.94,1.26s-1.49,0.4-2.38,0.4c-1.3,0-2.39-0.31-3.27-0.93
		c-0.88-0.62-1.43-1.46-1.66-2.53h13.03c0.06-0.83,0.1-1.28,0.1-1.34c0-1.79-0.39-3.37-1.17-4.72
		C380.55,234.44,379.48,233.4,378.11,232.68z M369.31,239.08c0.17-1.11,0.64-1.98,1.41-2.62s1.72-0.96,2.85-0.96
		c1.11,0,2.05,0.33,2.82,0.98s1.24,1.52,1.41,2.61H369.31z"/>
	<path class="st41" d="M390.96,234.42v-2.77h-4.64v17.65h4.64v-8.13c0-1.6,0.4-2.8,1.19-3.6c0.79-0.8,1.89-1.2,3.29-1.2
		c0.19,0,0.55,0.02,1.1,0.06v-4.39c-1.25,0-2.34,0.2-3.3,0.6C392.28,233.04,391.52,233.63,390.96,234.42z"/>
	<path class="st41" d="M411.82,232.68c-1.37-0.73-2.89-1.09-4.58-1.09c-1.73,0-3.29,0.38-4.69,1.14c-1.4,0.76-2.5,1.81-3.3,3.17
		c-0.8,1.36-1.2,2.88-1.2,4.56c0,1.71,0.41,3.23,1.22,4.58c0.81,1.35,1.96,2.4,3.46,3.15c1.49,0.76,3.21,1.14,5.15,1.14
		c3.12,0,5.48-0.93,7.11-2.78l-2.66-2.88c-0.6,0.58-1.24,1-1.94,1.26s-1.49,0.4-2.38,0.4c-1.3,0-2.39-0.31-3.27-0.93
		c-0.88-0.62-1.43-1.46-1.66-2.53h13.03c0.06-0.83,0.1-1.28,0.1-1.34c0-1.79-0.39-3.37-1.17-4.72
		C414.26,234.44,413.18,233.4,411.82,232.68z M403.02,239.08c0.17-1.11,0.64-1.98,1.41-2.62s1.72-0.96,2.85-0.96
		c1.11,0,2.05,0.33,2.82,0.98s1.24,1.52,1.41,2.61H403.02z"/>
	<polygon class="st41" points="432.94,241.86 433.95,227 427.9,227 428.91,241.86 	"/>
	<path class="st41" d="M433.14,244.75c-0.58-0.54-1.31-0.82-2.21-0.82c-0.9,0-1.63,0.27-2.21,0.82s-0.86,1.22-0.86,2.03
		c0,0.81,0.29,1.5,0.88,2.06c0.59,0.57,1.32,0.85,2.19,0.85s1.61-0.28,2.19-0.85c0.59-0.57,0.88-1.25,0.88-2.06
		C434,245.97,433.71,245.29,433.14,244.75z"/>
</g>
</svg>
